<?xml version="1.0" encoding="UTF-8"?>
<!DOCTYPE svg PUBLIC "-//W3C//DTD SVG 1.1//EN" "http://www.w3.org/Graphics/SVG/1.1/DTD/svg11.dtd">
<!-- Creator: CorelDRAW -->
<svg xmlns="http://www.w3.org/2000/svg" xml:space="preserve" width="21.1666mm" height="12.6998mm" version="1.1" style="shape-rendering:geometricPrecision; text-rendering:geometricPrecision; image-rendering:optimizeQuality; fill-rule:evenodd; clip-rule:evenodd"
viewBox="0 0 2116.66 1269.98"
 xmlns:xlink="http://www.w3.org/1999/xlink">
 <defs>
  <style type="text/css">
   <![CDATA[
    .fil1 {fill:#188906}
    .fil0 {fill:#19910C}
   ]]>
  </style>
 </defs>
 <g id="Layer_x0020_1">
  <metadata id="CorelCorpID_0Corel-Layer"/>
  <g id="_105553495742016">
   <path class="fil0" d="M857.52 745.76c55.35,0 43.77,13.59 43.77,-66.94 0,-14.29 -2.58,-15.27 -2.58,-28.32 3.42,3.93 1.04,1.06 4.29,6.01l55.19 78.68c9.86,13.6 5.04,10.57 40.93,10.57 5.93,0 7.72,-1.79 7.72,-7.73l0 -136.44c0,-11.66 -13.2,-7.73 -41.19,-7.73l0 95.26 -33.45 -48.93c-39.3,-55.96 -24.6,-46.33 -74.68,-46.33l0 151.9z"/>
   <path class="fil0" d="M1598.97 745.76c55.35,0 43.76,13.59 43.76,-66.94 0,-14.29 -2.57,-15.27 -2.57,-28.32 13.06,15.03 60,95.26 72.08,95.26 25.14,0 36.04,3.49 36.04,-7.73l0 -136.44c0,-11.66 -13.2,-7.73 -41.19,-7.73l0 95.26c-3.22,-3.7 -1.04,-0.76 -4.22,-6.07l-54.87 -79.01c-10.54,-14.29 -11.14,-10.18 -49.03,-10.18l0 151.9z"/>
   <path class="fil0" d="M857.52 493.46l43.77 0 0 -66.94c0,-14.29 -2.58,-15.26 -2.58,-28.32 2.33,2.69 0.1,-0.56 3.26,4.47l11.64 19.26c7.66,11.33 46.83,61.65 49.46,71.53l43.77 0 0 -149.32 -41.19 0 0 92.68c-2.36,-2.71 -0.52,-0.35 -3.27,-4.46l-29.47 -42.6c-6.51,-8.7 -10.59,-15.06 -17.28,-23.92 -20.39,-27.01 -2.51,-21.7 -58.11,-21.7l0 149.32z"/>
   <path class="fil0" d="M1447.07 678.82l0 -18.02c0,-44.12 74.66,-44.12 74.66,0 0,23.42 -1.81,51.49 -38.61,51.49 -22.68,0 -36.05,-20.06 -36.05,-33.47zm-43.76 -10.3c0,45.4 40,79.81 79.81,79.81 43.37,0 82.38,-34.85 82.38,-77.23 0,-64.63 -79.08,-108.56 -137.12,-57.31 -11.96,10.56 -25.07,33.32 -25.07,54.73z"/>
   <path class="fil0" d="M1382.71 423.95c0,-14.52 -0.52,-25.25 9.77,-36.57 15.5,-17.06 64.89,-23.98 64.89,36.57 0,50.11 -74.66,51.41 -74.66,0zm-43.76 -5.15c0,40.13 38.82,77.23 72.08,77.23 26.43,0 47.09,-1.43 68.33,-24.34 53.91,-58.14 -1.86,-130.12 -50.31,-130.12 -31.2,0 -42.71,0.07 -67.63,25.05 -12.08,12.11 -22.47,29.19 -22.47,52.18z"/>
   <path class="fil0" d="M1846.12 627.33l5.14 0c0.46,20.36 13.91,40.71 15.45,59.22l-36.04 0c1.77,-21.3 13.67,-37.93 15.45,-59.22zm-74.67 118.43l41.2 0c0.5,-6.07 5.63,-23.96 7.72,-28.32l56.64 0c2.35,10.09 5.51,18.83 7.72,28.32l41.19 0c-5.66,-24.3 -17.63,-51.61 -25.41,-74.99l-26.08 -76.91 -51.48 0c-4.86,10.13 -8.49,25.04 -12.88,36.05l-26.74 76.24c-3.69,10.54 -11.02,29.34 -11.88,39.61z"/>
   <path class="fil0" d="M1104.67 627.33l5.15 0c0.45,20.36 13.91,40.71 15.45,59.22l-36.05 0c1.78,-21.3 13.68,-37.93 15.45,-59.22zm-74.66 118.43l41.19 0c0.51,-6.07 5.63,-23.96 7.72,-28.32l56.64 0c2.36,10.09 5.52,18.83 7.73,28.32l41.19 0c-5.66,-24.3 -17.63,-51.61 -25.42,-74.99l-26.07 -76.91 -51.49 0 -26.07 74.33c-5.39,16.17 -24.28,63.92 -25.42,77.57z"/>
   <path class="fil0" d="M1104.67 375.03c8.16,5.98 4.32,6.84 11.9,29.29 3.49,10.33 7.76,21.27 8.7,32.5l-38.62 0c3.88,-8.09 17.79,-51.35 18.02,-61.79zm-74.66 118.43l41.19 0c1.79,-7.66 4.81,-22.24 7.72,-28.32l56.64 0c1.79,7.66 4.81,22.24 7.73,28.32l41.19 0 -38.29 -111.03c-3.92,-11.77 -8.38,-28.24 -13.2,-38.29l-54.07 0c-1.51,18.2 -47.73,135.18 -48.91,149.32z"/>
   <path class="fil0" d="M1596.39 449.69c0,10.06 -14.57,22.99 -38.61,7.73 -8.76,-5.57 -7.58,-10.08 -18.02,-12.88 -3.24,13.89 -14.34,20.08 -15.45,33.47 7.84,2.1 10.29,6.58 19.63,11.26 29.03,14.57 91.07,11.59 91.07,-47.3 0,-48.4 -64.36,-34.18 -64.36,-56.64 0,-6.69 9.19,-12.87 12.87,-12.87 15.11,0 21.97,9.8 33.47,12.87 0.94,-11.36 7.3,-18.02 10.3,-30.89 -51.97,-34.8 -110.07,3.03 -94.95,48.48 11.68,35.11 64.05,21.71 64.05,46.77z"/>
   <path class="fil0" d="M1197.35 418.8c0,40.52 31.57,77.23 72.09,77.23 33.57,0 19.64,-2.1 43.76,-7.72l0 -46.34c-6.16,4.13 -18.04,18.02 -33.47,18.02 -48.03,0 -49.74,-66.6 -16.97,-78.76 27.47,-10.18 35.38,4.32 50.44,14.4l0 -46.34c-24.12,-5.62 -10.19,-7.72 -43.76,-7.72 -40.52,0 -72.09,36.71 -72.09,77.23z"/>
   <path class="fil0" d="M1187.05 632.48l33.47 0 0 113.28c29.3,0 43.77,4.15 43.77,-7.73l0 -105.55c39.5,0 33.47,5.89 33.47,-30.89 0,-5.93 -1.8,-7.73 -7.73,-7.73l-102.98 0 0 38.62z"/>
   <polygon class="fil0" points="1949.09,745.76 2041.77,745.76 2041.77,707.14 1990.28,707.14 1990.28,593.86 1949.09,593.86 "/>
   <polygon class="fil0" points="1326.07,745.76 1367.27,745.76 1367.27,593.86 1326.07,593.86 "/>
   <path class="fil0" d="M952.78 789.52l0 2.58 1022.06 0 0 -2.58c-174.5,0 -342.01,-2.57 -514.89,-2.57 -170.33,0 -335.25,2.57 -507.17,2.57z"/>
   <path class="fil0" d="M1846.12 861.61c6.51,-13.58 4.2,-15.87 18.01,-23.17 2.32,9.92 5.69,14.44 7.73,23.17l7.72 0c0.33,-14.88 1.38,-8.31 7.68,-18.07 3.57,-5.53 7.08,-12.24 7.77,-20.55 -13.25,3.54 -4.49,1.73 -9.52,13.66 -4.39,10.43 -5.4,3.03 -8.5,14.66 -12.41,-9.09 -4.6,-17.8 -15.45,-25.74 -4.2,15.72 -11.94,12.6 -15.44,25.74 -14.17,-10.38 0.7,-18.37 -12.88,-28.32 0,17.76 2.29,31.53 12.88,38.62z"/>
   <path class="fil0" d="M1642.73 853.88c0.66,-1.36 5.17,-20.59 12.87,-20.59 14.82,0 7.67,18.89 -12.87,20.59zm-2.57 -5.14c0,26.88 15.12,4.53 25.74,-2.58 10.39,39.15 -23.16,23.17 -23.17,23.17 4.39,16.45 28.32,10.56 28.32,-7.72 0,-19.93 1.3,-14.27 -2.57,-30.9l-18.02 -2.57c-4.8,7.17 -10.3,8.9 -10.3,20.6z"/>
   <path class="fil0" d="M2010.88 856.46c0,-7.76 1.39,-23.17 7.72,-23.17 19.71,0 -3.93,20.63 -7.72,23.17zm18.02 -25.75c-7.31,-3.51 -13.3,-5.54 -18.23,2.32 -5.49,8.73 -10.03,42.55 10.03,22.95 0.07,-0.06 3.27,-3.84 3.55,-4.18 0.34,-0.4 0.82,-1.04 1.14,-1.43l3.51 -4.21c0.17,7.84 1.16,9.39 2.58,15.45 6.68,-4.9 2.76,-7.54 3.49,-36.49 0.07,-2.74 -0.77,-5.69 -0.92,-12.43 -7.81,5.73 -5.15,4.45 -5.15,18.02z"/>
   <path class="fil0" d="M1518.78 838.75c7.2,-3.92 7.86,-5.23 18.4,-5.46 -0.95,11.35 -2.19,10.38 -12.87,12.87l-5.53 -7.41zm-7.35 22.86c7.45,-5.46 5.16,-2.1 5.16,-15.45 11.25,7.54 24.45,31.83 30.89,7.72 -4.95,3.45 -13.35,12.36 -18.02,-5.14 14.54,-3.39 22.04,-20.6 0,-20.6 -6.19,0 -7.57,4.17 -12.87,7.72 0,-13.71 2.85,-14.73 -5.16,-20.59l0 46.34z"/>
   <path class="fil0" d="M1261.71 861.61l5.15 0c0.26,-11.64 2.58,-10.23 2.58,-23.17 4.72,3.16 10.47,7.68 15.15,10.59l8.04 4.83c5.42,4.99 0.91,5.01 7.7,7.75 0,-17.12 2.57,-22.29 2.57,-38.62l-5.14 0c0,5.66 -0.11,8.81 -0.73,14.24 -0.62,5.59 -0.29,4.14 -1.85,11.51 -30.01,-15.88 -17.04,-16.47 -30.89,-25.75 0,16.33 -2.58,21.5 -2.58,38.62z"/>
   <path class="fil0" d="M1740.56 828.14c0,18.4 -2.86,21.17 0,33.47 7.02,-5.14 4.11,-3.17 8.58,-12.08 12.72,-25.33 9.61,1.48 9.62,1.61 0.9,9.94 1.76,8.37 7.55,10.47 -3.88,-16.63 -2.58,-10.97 -2.58,-30.9 -9.31,0.78 -7.73,0.25 -14.55,8.62l-3.47 4.26c0,-4.63 0.55,-13.97 0.01,-18.04 -1.29,-9.86 -2.02,-8.21 -7.73,-10.28 1.34,5.77 2.57,5.92 2.57,12.87z"/>
   <path class="fil0" d="M1390.44 861.61l5.14 0c0.92,-10.98 1.41,-13.07 10.3,-15.45 1.86,7.99 3.29,7.46 5.15,15.45 6.99,-5.13 15.18,-21.25 15.45,-33.47l-5.15 0c-0.26,11.68 -3.49,18.19 -10.3,23.17l-10.3 -18.02c-1.09,13.17 -1.95,3.48 -5.15,15.45l-5.14 0c0,-12.3 -1.75,-10.68 -2.58,-20.6l-5.15 0c0.88,10.6 5.36,23.3 7.73,33.47z"/>
   <path class="fil0" d="M1591.24 861.61c5.71,-2.07 2.3,-0.18 6.26,-4.05 0.65,-0.64 4.05,-5.05 4.53,-5.76 5.33,-7.86 2.33,-7.88 9.81,-13.36 0,12.14 0.46,11.52 2.57,20.59 11.99,-0.99 13,-2.34 15.45,-12.87 -6.23,2.25 -3.75,2.93 -10.3,7.72 -2.2,-4.59 -4.61,-16.76 -5.15,-23.17 -12.12,3.24 -5.44,3.56 -18.02,18.03 0,-13.58 2.67,-12.3 -5.15,-18.03l0 30.9z"/>
   <path class="fil0" d="M1331.22 838.44c-6.8,0.84 -0.83,-6.94 0.12,-3.76l-0.12 3.76zm-12.87 5.15c0,18.67 6.73,26.87 17.22,17.22 5.69,-5.24 2.58,0.11 3.38,-9.5 -5.92,3.96 -5.18,4.92 -15.45,5.15l0 -10.3c11.76,-0.98 13.01,-4.98 15.45,-15.45l-5.67 -4.63c-5.96,2.86 -14.93,8.77 -14.93,17.51z"/>
   <path class="fil0" d="M1441.92 856.46c1.03,-12.35 2.36,-17.79 12.88,-20.6 0.8,3.02 2.57,7.02 2.57,7.73 0,9.74 -6.04,12.09 -15.45,12.87zm-5.14 2.57l7.72 5.15c8.2,-4.34 21.45,-11.78 16.13,-26.21 -2.31,-6.28 -0.73,-2.31 -2.86,-5.02l-5.55 -4.81c-9.88,5.23 -14.95,8.72 -15.44,30.89z"/>
   <path class="fil0" d="M1789.48 835.86c0.89,-7.17 10.97,0.59 2.75,0.6 -1.7,0 -3.43,4.89 -2.75,-0.6zm-7.73 0c0,48.56 18.34,23.93 20.6,15.45 -15.99,8.46 -13.6,5.06 -18.02,2.57 8.27,-15.63 7,-4.75 12.97,-13.06 4.93,-6.85 2.35,-17.47 -5.73,-13.21 -3.93,2.08 -3,5.79 -9.82,8.25z"/>
   <path class="fil0" d="M1910.48 856.46c0,-15.7 0.21,-15.26 10.29,-20.6 4.6,8.18 5.65,19.24 -10.29,20.6zm-5.15 5.15c16.4,3.47 31.32,-11.03 18.02,-30.9 -15.84,0 -18.02,6.12 -18.02,30.9z"/>
   <path class="fil0" d="M1349.24 833.29l0 5.15c11.12,4.27 1.44,-1.81 4.06,11.36 3.56,17.89 15.04,10.18 19.11,9.23l0 -5.15c-14.52,3.39 -15.44,1.67 -15.44,-15.44 11.89,-0.27 8.63,-2.58 18.02,-2.58l-15.45 -2.57 0 -12.87 -7.72 0c3.61,15.47 2.49,10.82 -2.58,12.87z"/>
   <path class="fil0" d="M1977.41 822.99l0 30.89c0,14.2 14.5,2.24 18.02,-2.57 -10.17,-4.2 1.09,-1.15 -12.87,2.57l0 -38.61c-4.34,3.01 -5.15,0.37 -5.15,7.72z"/>
   <path class="fil0" d="M1943.94 861.61l5.15 0c0.34,-15.12 5.33,-22.79 18.02,-25.75l0 -5.15c-12.4,1.04 -8.87,4.18 -18.02,10.3 -0.34,-15.59 1.67,-7.54 -5.15,-10.3l0 30.9z"/>
   <path class="fil0" d="M1701.94 833.29l0 5.15c6.19,2.49 2.05,-2.86 4.44,3.28 1.42,3.64 0.31,5.67 0.92,9.39 2.64,16.2 12.02,9.27 17.81,7.92l0 -5.15c-13.03,3.04 -15.08,0.91 -15.44,-15.44 11.89,-0.27 8.63,-2.58 18.02,-2.58l-15.45 -2.57 -5.15 -12.87c0,14.58 2.25,9.88 -5.15,12.87z"/>
   <path class="fil0" d="M1477.97 861.61l5.15 0c0,-25.11 9,-18.59 18.02,-30.9 -9.72,0.81 -13.89,5.82 -20.6,10.3l-5.15 -10.3c0,12.91 2.58,15.85 2.58,30.9z"/>
   <path class="fil0" d="M1560.35 853.88c0,16.62 15.08,-0.76 18.02,-5.14 -6.77,1.57 -7.57,2.34 -12.87,5.14 0,-31.08 7.41,-22.07 -5.15,-23.17l0 23.17z"/>
   <path class="fil0" d="M1557.77 825.57c8.39,-2.24 10.64,-4.49 12.88,-12.88 -5.74,2.08 -3.98,1.51 -7.44,5.44 -2.55,2.9 -3.46,4.49 -5.44,7.44z"/>
  </g>
  <g id="_105553495751168">
   <path class="fil1" d="M669.15 378.6c-1.86,0 -3.47,-1.24 -5.77,-1.66 -11.62,-2.1 -6.09,-0.06 -13.08,-0.06 -1.61,0 -3.11,-2.27 -4.13,-3.29 -1.41,-1.41 -2.9,-2.47 -4.44,-3.56 -8.41,-5.95 -9.2,-3.33 -17.06,-6.36 -6.15,-2.37 -12.62,-4.5 -19.5,-4.5 -8.54,0 -37.69,-1.18 -44.89,1.39 -3.6,1.29 -5.59,2.69 -9.48,3.66 -14.12,3.5 -21.08,-2.48 -36.14,16.99l-9.05 10.95c-3.24,3.95 -10.22,2.44 -19.85,2.44 -6.88,0 -13.36,-1.72 -18.85,-1.72 -4.92,0 -5.38,0.81 -10.51,-0.92 -3.33,-1.11 -6.26,-1.97 -9.42,-3.15l-5.66 -3.47c-0.32,-0.28 -0.58,-0.49 -0.91,-0.8l-0.86 -0.86c-8.13,-8.68 -10.67,-2.09 -15.1,-6.61 -1.99,-2.04 -2.44,-3.46 -4.87,-5.42 -2.67,-2.16 -9.84,-7.05 -13.23,-7.33 -0.28,12.87 -18.89,26.42 -30.85,27.42 -0.05,2.17 -1.77,7.88 -2.49,10.07 -2.2,6.71 -4.63,13.24 -6.02,20.27 -1.17,5.97 -0.29,5.55 2.04,9.84l19.69 38.58c0.74,1.72 1.35,2.41 2.22,4.07l25.51 45.89c0.96,1.63 1.61,2.63 2.71,4.15 1.97,2.7 3.41,5.33 6.05,7.1 1.34,-0.31 6.78,-3.32 8.32,-4.24 2.76,-1.65 5.27,-2.96 8.06,-4.51 16.16,-8.98 32.77,-17.4 48.77,-26.65 5.36,-3.09 10.73,-5.77 16.35,-8.78 5.08,-2.72 12.07,-5.21 14.68,-10.46 4.2,-8.47 7.55,-17.94 10.57,-27.13 1.03,-3.12 2.83,-6.72 3.51,-9.64 -0.95,-0.69 0.09,0.09 -0.9,-0.82l-0.59 -0.55c-0.09,-0.08 -0.21,-0.2 -0.3,-0.27 -10.11,-9.16 -13.38,-25.84 -7.18,-38.17 2.14,-4.25 3.12,-5.46 6.25,-8.61 9.12,-9.17 24.6,-12.34 36.81,-6.24 21.31,10.63 25.06,40.88 5.18,55.08 -6.92,4.94 -14.81,6.59 -23.3,5.88 -4.04,-0.33 -5.52,-1.48 -8.55,-1.73 -0.72,3.12 -2.42,5.96 -3.36,9.2 -1.91,6.61 -7.9,29.22 -13.02,32.69 -1.33,0.9 -2.96,1.41 -4.51,2.34l-17 9.28c-1.6,0.87 -2.59,1.23 -4.19,2.09 -1.77,0.96 -2.49,1.51 -4.38,2.48l-12.57 6.86c-1.7,0.92 -2.89,1.36 -4.56,2.29l-51.24 27.61 23.08 46.16c3.37,-0.12 25.35,-13.57 30.05,-15.88l74.46 -40.95c2.74,-1.47 4.74,-2.63 7.43,-4l33.59 -18.39c16.25,-8.83 32.18,-18.37 48.68,-26.74 1.72,-0.87 2.06,-1.21 3.62,-2.09 1.41,-0.78 2.39,-1.13 3.8,-1.92l26.09 -14.47c1.3,-0.67 2.35,-1.11 3.76,-1.95 1.41,-0.84 2.29,-1.33 3.64,-2.07 1.25,-0.69 2.82,-1.45 4.03,-2.26 -0.18,-2.15 -0.75,-2.82 -1.16,-5.12 -1.95,-10.72 1.55,-22.59 8.71,-29.6 15.77,-15.42 42.4,-10.93 52.03,8.85 14.98,30.8 -22.48,60.51 -49.8,38.94 -2.81,-2.22 -2.66,-2.12 -4.64,-5.07l-14.83 8.02c-2.33,1.36 -4.73,2.74 -7.27,4.16l-7.79 4.2c-1.46,0.78 -2.5,1.18 -3.79,1.93 -1.29,0.75 -2.01,1.26 -3.64,2.07l-67.42 36.55c-12.67,6.38 -24.57,14.13 -37.32,20.39 -3,1.47 -4.81,2.66 -7.82,4.18l-67.31 36.66c-4.05,2.16 -19.37,11.31 -22.75,12.1l20.18 39.23c2.3,4.6 4.35,8.95 6.67,13.33 10.05,-5.32 20.64,-10.32 30.85,-15.43 14.7,-7.35 21.69,-1.71 40.56,-1.71 0.62,-7.4 4.99,-13.91 9.84,-18.72 19.27,-19.12 54.14,-4.23 54.14,21 0,6.14 -0.45,12.46 -3.44,17.7 -3.42,5.99 -8.51,11.88 -15.33,14.38 -15.36,5.62 -30.03,2.66 -39.92,-11.08 -2.03,-2.82 -3.73,-6.87 -4.62,-10.25 -0.16,-0.62 -0.77,-4.28 -0.79,-4.34 -0.8,-1.9 -3.11,-1.64 -7.88,-1.84 -12.14,-0.51 -20.77,-2.47 -32.18,3.24 -7.45,3.73 -32.38,13.6 -32.38,19.62 0,3.58 4.27,9.11 5.9,12.38 7.19,14.43 15.3,27.98 22.86,42.27 1.14,2.13 2.21,3.91 3.24,5.9l13.04 24.1c2.89,5.42 3.94,10.75 10.38,10.75 2.08,0 2,-0.67 4,-1.14 1.18,1.77 2.73,3.24 4.42,4.72 11.22,9.9 17.8,-3.48 21.2,-12.81 0.95,-2.62 1.43,-4.23 3.52,-5.62 1.77,3.36 2.45,7.95 3.36,12.06 0.66,2.97 1.32,2.9 2.09,5.34 0.64,2.03 0.94,4.64 1.4,6.59 2.37,-0.63 24.68,-20.57 49.06,-2.2 3.21,2.41 2.44,3.69 6.36,2.78 0,-18.25 -1.5,-15.64 11.01,-26.13 4.8,-4.02 -0.62,-10.24 5,-19.56 3.69,-6.13 8.8,-7.39 9.12,-16.02 0.36,-9.34 2.29,-6.15 2.29,-10.85 0,-4.48 -1.71,-6.81 -1.71,-11.43 0,-3.34 7.7,-5.63 11.42,-5.71 0.49,-5.9 3.07,-7.04 8.04,-7.39 5.72,-0.39 6.83,-3.56 9.07,-6.92 1.35,-2.02 4.1,-3.37 6.32,-4.54 -0.66,-7.86 -2.56,-5.45 2.19,-13.23 1.33,-2.19 2,-4.49 2.31,-7.41 0.56,-5.37 0.07,-13.67 0.07,-19.35 4.64,-0.39 7.39,-5.05 11.88,-5.83 1.35,-0.24 3.98,-0.35 5.5,-0.78 5.39,-1.52 3.77,-8.5 5.31,-12.97 3.05,-8.85 -0.98,-8 -0.98,-10.13 0,-2.19 1.61,-11.71 3.24,-13.32 3.91,-3.86 5.29,-0.35 9.13,-8.02 2.27,-4.54 4.26,-5.97 4.2,-12.93 -0.03,-3.64 0.82,-4.2 1.13,-7.44 0.31,-3.32 -0.63,-5.12 0.72,-7.85 1.04,-2.08 2.41,-2.64 3.12,-4.88 0.93,-2.93 0.58,-3.89 2.36,-6.21 5.65,-7.35 0.22,-7.88 6.18,-10.96 4.4,-2.28 8.05,-10.14 11.05,-14.66 1.16,-1.75 2.39,-4.57 4.57,-4.57 5.53,0 6.05,6.41 13.86,-1.56 4.66,-4.76 15.24,-10.39 21.52,-12.76 7.87,-2.98 -0.47,-10.93 0.22,-15.7l2.5 -9.02c2.06,-4.3 -0.64,-8.89 0.73,-13.54 2.62,-8.91 0.95,-4.83 -4.43,-9.81 -7.83,-7.24 -0.48,-8.45 -22.4,-8.45 -1.12,-2.33 -2.13,-16.29 -2.77,-20.09l-3.5 -19.92c-1.27,-7.46 -6.7,-14.63 -10.87,-20.55l-6.69 -9.3c-3.48,-4.74 -5.41,-9.85 -8.97,-14.46 -3.67,-4.76 -9.2,-3.09 -16.34,-3.09 -7.26,0 -8.56,10.72 -13.74,11.4 -1.86,0.24 -4.34,-0.14 -6.25,0.03 -3.56,0.33 -11.22,3.09 -13.26,5.6 -1.93,2.37 -3.15,4.92 -5.44,7.12 -2.74,2.64 -4.09,3.14 -7.75,4.82 -3.99,1.84 -3.8,5.05 -8.14,10.72 -0.93,1.22 -1.73,2.59 -3.69,2.59z"/>
   <path class="fil1" d="M88.14 789.36c1.4,6.02 0.57,13.2 0.57,19.43 2.89,0 4.38,-0.6 7.99,-0.58 8.61,0.05 19.02,0.96 27.38,-0.05 3.36,-0.4 2.87,-1.66 7.45,-1.69 3.02,-0.01 6.18,0.14 9.19,0.05 10.46,-0.31 23.87,-1.91 33.49,2.47 5.87,2.67 15.4,0.45 21.49,6.5l12.66 10.76c3.83,2.97 8.74,8.6 11.3,12.7 1.24,2 2.02,4.08 3.29,5.85 1.4,1.95 3.15,2.95 4.31,5.4 2.1,4.45 4.52,8.18 5.91,12.95 1.24,4.27 3.59,4.81 7.05,6.66 1.45,0.77 1.86,1.08 3.88,1.25 0,4.76 -0.35,1.94 -2.28,4.57 0.56,1.17 1.49,3.79 1.65,5.21 0.61,5.58 -0.09,3.78 2.25,8.6 2.81,5.81 4.07,12.77 6.46,18.67 3.58,8.84 1.06,3.07 5.18,9.68 6.5,10.41 20.73,24.68 33.59,24.68l12.6 -1.11c4.91,-0.4 -0.25,-1.42 5.07,-1.79 2.37,-0.16 4.87,0.25 7.33,-0.09 1.72,-0.24 3.6,-0.91 5.84,-1.01 7.18,-0.33 5.87,-0.25 12.35,-1.94 2.11,-0.55 4.67,-0.34 7.08,-0.34 0.97,-1.44 1.83,-2.58 2.29,-4.57l6.86 0c0.49,2.12 0.94,1.6 1.14,4 5.2,0 7.59,-2.55 11.57,-3.28 4.13,-0.76 9.82,-0.24 13.38,-1.48l11.84 -3.01c14.79,-3.23 24.18,-0.98 26.97,-1.56 2.8,-0.59 3.67,-2.04 5.94,-3.24 0,-2.17 0.32,-3.02 0.42,-4.16 0.16,-1.99 -0.21,-2.13 -0.39,-4.43 -0.33,-3.99 -1.51,-3.92 -2.32,-7.41 3.48,0 2.96,0.56 4.94,2.5 0.55,0.54 0.93,0.87 1.48,1.37 1.73,1.55 4.56,3.56 7.29,3.56 2.68,0 1.03,-3.2 4.22,-5.49 4.04,-2.92 3.39,-4.42 5.58,-8.71 1.68,-3.28 2.79,-6.77 5.22,-9.63 1.61,-1.89 3.61,-2.79 4.45,-5.26 1.42,-4.19 0.43,-12.62 1.89,-17.54 0.75,-2.54 2.64,-4.99 2.64,-7.07 0,-5.53 -3.43,0.3 -3.43,-14.86 0,-5.13 5.66,-6.97 8.6,-9.1 2.48,-1.8 1.83,-3.08 3.82,-5.33 5.62,-6.36 15.55,-19.05 21.86,-23.27 -4.85,-9.17 -11.78,-19.97 -17.25,-29.03l-13.01 -21.84c-4.19,-7.28 -8.27,-14.92 -12.93,-21.92 -7.84,-11.8 -13.86,-24.76 -21.71,-36.56 -1.16,-1.76 -3.79,-5.89 -4.23,-7.77 -2.38,0.56 -9.66,4.47 -11.89,5.82 -8,4.88 -26.02,13.15 -35.53,18.18 0.33,3.97 2.36,7.27 3.84,11.02 1.48,3.77 2.5,7.11 4,10.85 1.82,4.54 7.59,17.95 7.59,22.69 0,10.95 -2.55,26.71 -6.86,34.85 2.29,1.21 4.65,1.83 7.06,3.23 17.26,10.05 13.93,39.05 -5.13,48.39 -25.93,12.7 -52.14,-18.69 -33.03,-43.31 2.99,-3.85 8.88,-7.77 14.39,-9.03 9.91,-2.25 6.6,0.82 10.64,-12.78 1.53,-5.17 3.79,-13.53 3.79,-19.64 0,-6.33 -7.72,-23.89 -11.38,-30.32 -4.59,-8.06 -9.93,-6.83 -17.27,-3.47 -8.19,3.76 -16.2,8.37 -24.65,11.91 -11.71,4.91 -10.38,19.85 -12.14,30.71 -0.34,2.1 -0.79,3.52 -0.83,5.45 8.82,0.74 17.71,15.42 17.71,24 0,12.06 -5.85,22.13 -16.75,27.24 -6.48,3.04 -16.01,3.04 -22.49,0l-8.26 -5.45c-17.04,-15.54 -7.68,-48.07 20.64,-48.07 1.25,-14.94 3.28,-32.79 15.75,-41.38 7.93,-5.47 20.38,-8.85 29.59,-13.27 2.79,-1.34 7.39,-4.14 10.08,-4.77 -0.65,-2.78 -2.23,-4.18 -3.68,-6.6l-11.98 -18.87c-2.66,-4.05 -14.92,-22.24 -15.76,-25.37l-81.37 43.18c-2.61,1.56 -4.9,2.34 -7.51,3.9 -14.28,8.56 -29.91,15.39 -44.26,23.73l-44.78 23.78c-5.07,2.8 -9.95,5.06 -14.85,8l-44.89 23.66z"/>
   <path class="fil1" d="M140.13 418.59l0.61 9.72c0.07,3.54 -1.18,6.03 -1.18,9.13 0,4.48 1.14,7.69 1.14,12.57 0,0.14 -1.72,1.83 -1.72,6.29 0,6.13 6.19,4.07 -1.28,12.42 -2.98,3.33 -3.49,11.16 -4.37,15.63 -2.34,11.82 -3.08,7.55 6.09,16.07 0.8,0.75 1.18,1.28 1.99,2.01 0.97,0.9 1.59,1.13 2.25,1.75 1.95,1.83 1.18,3.26 2.01,5.98 0.67,2.16 1.66,3.13 1.88,5.55 0.43,4.79 -0.68,9.59 2.35,13.65 3.8,5.07 3.48,6.78 1.23,13.35 -0.64,1.88 -1.18,4.71 -1.86,6.14 -4.2,0 -7.23,-0.9 -8.94,1.91 -9.08,14.87 7.13,10.68 0.12,20.69 -1.94,2.77 -2.67,10.39 -6.48,13.52 -2.46,2.03 -7.54,0.79 -10.29,2.85 -3.54,2.64 -1.83,5.89 -1.83,10.73 -2.46,0.66 -4.02,3.36 -5.48,5.38l-4.16 6.84c-1.64,3.91 4.83,0.15 15.17,5.67 8.71,4.65 16.75,14.64 16.75,27.81 1.91,0.92 4.4,1.41 6.89,1.68 2.85,0.3 5.11,0.86 7.46,1.1 9.01,0.94 18.92,0.6 27.92,0.08 6.04,-0.36 15.57,-7.25 21.33,-10.09 13.86,-6.86 26.71,-14.86 40.56,-21.71 2.63,-1.3 4.35,-2.43 6.66,-3.63l20.96 -11.03c1.57,-0.85 1.62,-1.06 3.28,-1.86 14.54,-7.02 9.64,-7.98 -1.95,-29.38 -5.25,-9.68 -6.45,-10.82 -18.92,-14.78 -3.82,-1.22 -14.18,-4.56 -17.64,-4.64 -2.14,9.16 -17,17.71 -26.86,17.71 -14.42,0 -25.18,-6.14 -31.23,-19.04 -7.51,-16 0.21,-34.89 15.61,-42.29 12.25,-5.89 26.41,-2.95 36.34,5.77 8.29,7.28 9.56,16.92 9.56,26.99 0,1.97 -0.42,2.22 -0.57,4 3.24,0.76 6.21,1.6 9.51,2.49 11.53,3.08 16.73,3.4 25.21,12.5 6.29,6.77 14.18,21.64 18.98,30.72 3.53,-0.82 10.22,-4.83 13.53,-6.48 1.37,-0.68 2.03,-1.02 3.37,-1.76 1.5,-0.84 1.96,-0.91 3.47,-1.67 1.72,-0.86 1.46,-0.91 3.39,-1.76l13.26 -6.73c4.72,-2.57 12.48,-7.34 17.26,-8.45 -0.34,-1.46 -2.73,-5.62 -3.67,-7.19 -8.91,-14.92 -18.67,-34.87 -27.73,-50.54l-43.24 -79.01c-3.72,-7.38 -8.33,-14.31 -12.02,-21.7 -6.11,-12.24 -13.34,-23.69 -19.61,-35.8l-15.75 -28.81c-5.35,-8.97 -1.99,-6.62 -16.81,-6.62 -7.09,0 -13.54,1.94 -20.14,3.85 -2.43,0.71 -1.52,0.38 -3.15,2 -2.61,2.6 -5.63,3.58 -8.27,6.58l-8.03 7.4c-5.63,4.05 -2.51,9.18 -3.34,16.65 -0.25,2.29 -0.53,6.55 -0.98,8.73 -0.79,3.82 -1.23,4.03 -3.03,6.69 -1.55,2.3 -1.39,3.65 -3.51,6.2 -1.98,2.38 -2.25,3.52 -4.53,5.75 -2.05,2.01 -2.76,2.91 -4.6,5.11 -4.18,5 -12.97,9.94 -12.97,17.31z"/>
   <path class="fil1" d="M182.4 658.54l-25.15 -1.13c-4.87,-0.41 -9.79,-1.73 -14.84,-1.73 -3.67,15.78 -30.39,31.67 -51.82,13.55l-3.67 -3.76c-1.56,-1.52 0.5,-0.45 -1.64,-1.22l1.72 7.43c0,2.09 -3.43,5.34 -3.43,13.14 0,6.11 3.34,3.61 1.47,14.04 -2.21,12.39 -3.9,9.26 -1.4,20.73 0.38,1.75 0.53,3.9 0.5,6.36 -0.08,6.94 0.54,6.21 3.33,10.39 3.5,5.24 0.59,3.79 -0.29,9.84 -0.45,3.15 0.96,8.4 0.96,12.33 0,2.04 -1.14,3.2 -1.14,4.57l0.54 15.52c0.33,2.94 1.41,2.02 2.89,1.16l69.31 -37.05c1.45,-0.79 2.5,-1.18 3.78,-1.93 12.42,-7.21 29.19,-15.4 42.48,-22.65l15.63 -8.37c3.01,-1.49 4.8,-2.7 7.81,-4.19l15.23 -8.19c16.29,-8.48 38.68,-21.13 54.09,-28.75 4,-1.98 21.27,-11.75 23.61,-12.38 -0.21,-2.54 -1.82,-4.86 -2.96,-6.74l-7.32 -13.26c-4.62,-8.95 -13,-22.57 -18.28,-32.56 -0.59,0.28 -1.05,0.4 -1.62,0.67l-93.4 49.42c-5.18,2.59 -8.79,4.76 -16.39,4.76z"/>
   <path class="fil1" d="M236.68 328.9c0.18,2.23 9.38,18.36 11.18,21.37 1.42,2.38 2.5,4.59 3.85,7.01l56 102.83c0.83,1.55 1.34,2.13 2.1,3.61 10.99,21.13 24.12,43.24 34.84,63.99 1.24,2.39 2.43,4.34 3.8,7.05 0.78,1.55 1.19,2.06 1.89,3.26 0.75,1.29 1.15,2.33 1.93,3.78l3.83 7.02c1.44,2.48 2.6,4.85 3.98,7.45 3.07,-0.25 15.69,-7.77 19.43,-9.7l31.41 -17.15 -52.17 -94.07c-0.97,-1.8 -1.66,-2.42 -2.47,-4.4 -2.08,-5.12 1.42,-17.19 2.53,-21.62 1.2,-4.75 4.92,-16.3 5.27,-20.45 -3.59,-0.3 -8.9,-4.1 -10.68,-4.74l-8.94 -1.66c-11.91,0.77 -12.38,-12.8 -23.71,-26.82 -1.18,-1.46 -2.55,-2.67 -3.94,-4.06 -1.58,-1.6 -15.84,-12.89 -18.09,-13.32 -3.8,-0.74 -5.22,4.07 -12.23,-0.35 -2.24,-1.42 -8.94,-3.46 -13.5,-5.36 -3.97,-1.66 -4.34,-2.59 -9.04,-3.52 -12.16,-2.42 0.92,-6.72 -27.27,-0.15z"/>
   <path class="fil1" d="M423.49 686.53c0.66,2.84 21.43,36.85 25.17,43.39l40.85 68.84c0.82,1.44 1.29,3.17 3.11,3.17 1.11,0 9.45,-2.87 10.39,-3.31 2.19,-1.02 1.61,-1.71 2.59,-4.27 3.48,-9.07 -0.58,-12.29 8.13,-13.01 4.71,-0.39 5.14,-4.32 8.03,-6.26 -0.9,-1.33 -2.41,-3.47 -2.86,-5.14 2.1,-0.49 6.66,-3.26 9.14,-4.57 -0.92,-3.93 -4.61,-9.25 -6.48,-12.94l-15.12 -28.88c-0.72,-1.24 -1.2,-2.05 -1.82,-3.31l-27.45 -51.97c-1.22,-2.1 -2.77,-4.17 -3.4,-6.88 -2.74,0.23 -4.46,1.75 -6.31,2.83l-31.4 16.02c-2.85,1.42 -9.98,5.69 -12.57,6.29z"/>
   <path class="fil1" d="M418.92 637.4c0.17,2.08 2.07,4.7 3.05,6.66 1.16,2.34 2.11,4.34 3.23,6.49l6.86 13.13 12.76 -6.67c2.38,-1.18 4.07,-2.16 6.39,-3.32l6.56 -3.15c-0.88,-3.78 -12.48,-23.44 -13.14,-26.28 -2.17,1.15 -3.98,2.28 -6.28,3.43 -2.19,1.09 -4.12,2.06 -6.48,3.23 -3.58,1.77 -9.34,5.64 -12.95,6.48zm19.36 11.39c1.88,0 3.55,-1.11 3.55,-2.9 0,-1.38 -0.97,-2.28 -2.44,-2.89 -1.01,-0.43 -1.68,-0.57 -1.68,-1 0,-0.32 0.37,-0.58 0.88,-0.58 0.45,0 1.17,0.22 1.45,0.71l1.44 -1.38c-0.37,-0.93 -1.49,-1.6 -2.92,-1.6 -1.78,0 -3.32,1.15 -3.32,2.78 0,1.41 1.02,2.19 2.21,2.7 0.91,0.41 1.87,0.84 1.87,1.32 0,0.38 -0.51,0.57 -1.04,0.57 -0.79,0 -1.52,-0.35 -1.91,-0.92l-1.5 1.48c0.47,1.03 1.87,1.71 3.41,1.71z"/>
   <path class="fil1" d="M376.07 617.4l13.14 25.71c2.82,-0.65 20.98,-10.63 25.71,-13.14 -0.56,-2.41 -12.22,-23.98 -13.14,-25.71 -8.53,4.52 -17.18,8.63 -25.71,13.14zm20.22 11.86c1.42,0 2.62,-0.56 3.51,-1.38l-1.42 -1.89c-0.6,0.54 -1.3,0.92 -2.09,0.92 -1.34,0 -2.6,-1.07 -2.6,-2.53 0,-1.43 1.21,-2.53 2.65,-2.53 0.69,0 1.46,0.34 2.03,0.86l1.43 -1.84c-0.96,-0.87 -2.25,-1.4 -3.46,-1.42 -2.93,0 -5.17,2.14 -5.17,4.91 0,2.95 2.47,4.9 5.12,4.9z"/>
   <path class="fil1" d="M326.94 600.84c1.26,5.39 12.26,21.98 12.57,25.7 3.41,-0.07 4.44,-1.6 6.85,-2.86l19.43 -9.71c-0.17,-2.08 -2.07,-4.69 -3.05,-6.66 -1.25,-2.52 -2.11,-3.95 -3.42,-6.29 -2.43,-4.35 -4.05,-8.84 -6.67,-12.75 -2.2,0.18 -16.51,7.78 -19.18,9.38 -2.18,1.31 -3.95,2.59 -6.53,3.19zm20.98 2.53l0 4.58 -4.8 -4.66 -0.81 0 0 9.48 2.49 0 0 -4.58 4.83 4.67 0.79 0 0 -9.49 -2.5 0z"/>
   <path class="fil1" d="M383.5 568.84l13.14 25.71c3.38,-0.79 24.47,-12.01 25.71,-13.71l-6.47 -12.39c-2.43,-4.35 -4.05,-8.83 -6.67,-12.75l-19.23 9.9c-1.78,0.89 -5.01,2.85 -6.48,3.24zm21.65 11.03l2.73 0 -4.37 -9.49 -1.18 0 -4.36 9.49 2.73 0 0.47 -1.09 3.51 0 0.47 1.09zm-3.19 -2.91l0.97 -2.22 0.96 2.22 -1.93 0z"/>
   <path class="fil1" d="M96.14 641.97c0,9.2 6.56,16.57 14.28,16.57l3.43 0c6.46,0 13.71,-7.25 13.71,-13.71 0,-5.37 -0.04,-9.54 -4.98,-13.88 -10.04,-8.8 -26.44,-1.13 -26.44,11.02z"/>
   <path class="fil1" d="M538.89 413.45l0 2.85c0,6.93 7.37,14.29 14.29,14.29 5.39,0 7.96,-0.23 12.15,-4.42 1.41,-1.41 2.16,-1.88 3.1,-3.75 5.31,-10.56 -0.6,-23.25 -15.25,-23.25 -6.92,0 -14.29,7.36 -14.29,14.28z"/>
   <path class="fil1" d="M369.79 665.96l13.14 25.14c3.8,-0.32 22.6,-11.74 25.71,-12.57 -0.24,-2.88 -7.61,-15.2 -9.53,-19.03 -1.03,-2.07 -2.55,-4.56 -3.04,-6.68 -2.59,0.22 -10.74,4.65 -13.25,6.18l-13.03 6.96zm19.42 10.94c2.92,0 5.15,-2.13 5.15,-4.92 0,-2.81 -2.23,-4.95 -5.15,-4.95 -2.91,0 -5.14,2.14 -5.14,4.95 0,2.79 2.22,4.92 5.14,4.92zm0 -2.38c-1.49,0 -2.63,-1.12 -2.63,-2.56 0,-1.45 1.14,-2.56 2.63,-2.56 1.49,0 2.63,1.11 2.63,2.56 0,1.44 -1.14,2.56 -2.63,2.56z"/>
   <path class="fil1" d="M569.17 635.68c0,6.68 6.35,14.86 13.72,14.86 5.59,0 8.02,0.26 12.72,-4.41 8.83,-8.76 4.52,-25.87 -12.15,-25.87 -7.57,0 -14.29,7.71 -14.29,15.42z"/>
   <path class="fil1" d="M209.83 551.13l3.99 0c6.64,0 13.72,-7.08 13.72,-13.71l0 -2.86c0,-6.46 -7.25,-13.71 -13.72,-13.71 -5.64,0 -8.12,0.3 -12.44,4.7 -11.16,11.37 0.91,25.58 8.45,25.58z"/>
   <path class="fil1" d="M705.72 442.58c0,8.35 6.47,15.43 13.71,15.43l2.85 0c7.24,0 13.71,-7.08 13.71,-15.43 0,-19.39 -30.27,-20.05 -30.27,0z"/>
   <path class="fil1" d="M285.24 802.51c0,3.95 2.57,8.63 4.68,10.73 14.38,14.38 35.62,-7.3 21.48,-21.47 -4.71,-4.72 -10.4,-5.63 -16.69,-3.21 -1.81,0.69 -3.52,2.03 -4.78,3.21 -2.11,1.96 -4.69,6.91 -4.69,10.74z"/>
   <path class="fil1" d="M352.08 360.89c0,6.33 4.29,11.7 8.66,13.62 6.53,2.89 12.3,1.88 17.29,-3.1 6.25,-6.25 5.52,-15.86 -0.1,-21.52 -9.07,-9.12 -25.85,-2.95 -25.85,11z"/>
   <path class="fil1" d="M368.65 834.5c4.87,0 7.94,0.4 12.45,-4.12 9.75,-9.75 1.68,-27.29 -13.54,-24.41 -8.04,1.53 -13.36,10.52 -10.51,18.99 1.31,3.92 6.57,9.54 11.6,9.54z"/>
  </g>
 </g>
</svg>
